<svg width="22" height="19" viewBox="0 0 22 19" fill="none" xmlns="http://www.w3.org/2000/svg">
<g id="Group">
<path id="Vector" d="M11 18.5867C10.8836 18.5867 10.767 18.56 10.6601 18.5064C10.5523 18.4525 7.99133 17.1621 5.39341 14.9972C3.85089 13.7118 2.61748 12.3832 1.72763 11.0483C0.581259 9.32882 0 7.58993 0 5.88007C0 2.63778 2.63778 0 5.88007 0C8.07296 0 9.98926 1.20637 11 2.99052C12.0107 1.20637 13.9271 0 16.1199 0C19.3621 0 22 2.63778 22 5.88007C22 7.58993 21.4187 9.32882 20.2724 11.0483C19.3824 12.3832 18.1491 13.7118 16.6066 14.9973C14.0087 17.1621 11.4477 18.4526 11.3399 18.5064C11.233 18.56 11.1164 18.5867 11 18.5867ZM5.88007 1.5203C3.47615 1.5203 1.52037 3.47607 1.52037 5.88C1.52037 11.4897 9.26733 16.023 10.9998 16.9663C12.7316 16.0219 20.4797 11.4816 20.4797 5.88C20.4797 3.47607 18.5239 1.5203 16.12 1.5203C13.716 1.5203 11.7603 3.47607 11.7603 5.88C11.7603 6.29978 11.4199 6.64022 11.0001 6.64022C10.5803 6.64022 10.2399 6.29978 10.2399 5.88C10.2398 3.47615 8.28407 1.5203 5.88007 1.5203Z" fill="#E17C7C"/>
</g>
</svg>
