<svg width="58" height="9" viewBox="0 0 58 9" fill="none" xmlns="http://www.w3.org/2000/svg">
<path id="Vector 1" d="M0.613081 7.07789C0.103811 7.29158 -0.135803 7.87765 0.0778865 8.38692C0.291576 8.89619 0.87765 9.1358 1.38692 8.92211L0.613081 7.07789ZM14.4 3.33759L14.6379 4.30888L14.4 3.33759ZM34 1.00638L33.9901 2.00633L34 1.00638ZM56.7411 5.76049C57.2745 5.90348 57.8229 5.58695 57.9659 5.0535C58.1089 4.52005 57.7924 3.97168 57.2589 3.82869L56.7411 5.76049ZM1 8C1.38692 8.92211 1.3869 8.92212 1.38692 8.92211C1.38696 8.9221 1.387 8.92208 1.38709 8.92204C1.38727 8.92197 1.38757 8.92184 1.38799 8.92167C1.38882 8.92132 1.39013 8.92077 1.39192 8.92002C1.39548 8.91853 1.40094 8.91625 1.40824 8.9132C1.42284 8.9071 1.44483 8.89792 1.47391 8.88584C1.53205 8.86167 1.6185 8.82586 1.73073 8.7797C1.95521 8.68736 2.28277 8.55364 2.6933 8.38883C3.51458 8.05912 4.6668 7.60546 5.98939 7.11012C8.64435 6.11577 11.9491 4.9674 14.6379 4.30888L14.1621 2.36629C11.354 3.05405 7.95872 4.23689 5.28792 5.23717C3.94762 5.73915 2.78051 6.19867 1.94819 6.53281C1.53192 6.69992 1.1991 6.83579 0.969913 6.93006C0.85531 6.9772 0.766595 7.01395 0.706288 7.03902C0.676134 7.05155 0.65308 7.06116 0.637441 7.0677C0.629621 7.07096 0.623655 7.07346 0.619582 7.07516C0.617545 7.07601 0.615982 7.07667 0.614897 7.07712C0.614354 7.07735 0.613931 7.07753 0.613628 7.07766C0.613477 7.07772 0.61334 7.07778 0.613264 7.07781C0.613157 7.07785 0.613081 7.07789 1 8ZM14.6379 4.30888C21.9164 2.52625 26.3268 1.93042 33.9901 2.00633L34.0099 0.00642926C26.1634 -0.0713016 21.5862 0.548035 14.1621 2.36629L14.6379 4.30888ZM33.9901 2.00633C38.4941 2.05095 44.1667 2.98144 48.7536 3.91462C51.0384 4.37946 53.0379 4.84158 54.4657 5.18741C55.1794 5.36028 55.7499 5.50397 56.1411 5.60425C56.3367 5.65438 56.4875 5.69366 56.589 5.7203C56.6398 5.73361 56.6782 5.74377 56.7037 5.75055C56.7165 5.75393 56.726 5.75647 56.7323 5.75814C56.7354 5.75897 56.7377 5.75959 56.7392 5.75998C56.7399 5.76018 56.7404 5.76032 56.7408 5.7604C56.7409 5.76045 56.741 5.76047 56.7411 5.76049C56.7411 5.7605 56.7411 5.76049 57 4.79459C57.2589 3.82869 57.2588 3.82866 57.2586 3.82861C57.2585 3.82857 57.2582 3.82851 57.258 3.82844C57.2575 3.8283 57.2567 3.8281 57.2558 3.82785C57.2539 3.82735 57.2512 3.82663 57.2477 3.82568C57.2406 3.82379 57.2302 3.82103 57.2166 3.81742C57.1894 3.8102 57.1492 3.79958 57.0967 3.7858C56.9917 3.75824 56.8372 3.718 56.6377 3.66687C56.2387 3.56461 55.6597 3.41876 54.9365 3.24361C53.4906 2.8934 51.4665 2.42558 49.1523 1.95477C44.5412 1.01665 38.7138 0.0530279 34.0099 0.00642926L33.9901 2.00633Z" fill="#FFE24A"/>
</svg>
