<svg width="56" height="55" viewBox="0 0 56 55" fill="none" xmlns="http://www.w3.org/2000/svg">
<g id="Star 5" filter="url(#filter0_d_47_594)">
<path d="M26.0489 14.9271C26.3483 14.0057 27.6517 14.0057 27.9511 14.9271L29.4697 19.6008C29.6035 20.0128 29.9875 20.2918 30.4207 20.2918H35.335C36.3037 20.2918 36.7065 21.5314 35.9228 22.1008L31.947 24.9894C31.5966 25.244 31.4499 25.6954 31.5838 26.1074L33.1024 30.7812C33.4017 31.7025 32.3472 32.4686 31.5635 31.8992L27.5878 29.0106C27.2373 28.756 26.7627 28.756 26.4122 29.0106L22.4365 31.8992C21.6528 32.4686 20.5983 31.7025 20.8976 30.7812L22.4162 26.1074C22.5501 25.6954 22.4034 25.244 22.053 24.9894L18.0772 22.1008C17.2935 21.5314 17.6963 20.2918 18.665 20.2918H23.5793C24.0125 20.2918 24.3965 20.0128 24.5303 19.6008L26.0489 14.9271Z" fill="#F8F8F8"/>
</g>
<defs>
<filter id="filter0_d_47_594" x="0.66309" y="0.236084" width="54.6738" height="53.8586" filterUnits="userSpaceOnUse" color-interpolation-filters="sRGB">
<feFlood flood-opacity="0" result="BackgroundImageFix"/>
<feColorMatrix in="SourceAlpha" type="matrix" values="0 0 0 0 0 0 0 0 0 0 0 0 0 0 0 0 0 0 127 0" result="hardAlpha"/>
<feOffset dx="1" dy="4"/>
<feGaussianBlur stdDeviation="9"/>
<feComposite in2="hardAlpha" operator="out"/>
<feColorMatrix type="matrix" values="0 0 0 0 0 0 0 0 0 0 0 0 0 0 0 0 0 0 0.25 0"/>
<feBlend mode="normal" in2="BackgroundImageFix" result="effect1_dropShadow_47_594"/>
<feBlend mode="normal" in="SourceGraphic" in2="effect1_dropShadow_47_594" result="shape"/>
</filter>
</defs>
</svg>
